# Blender 4.5.3 LTS
# www.blender.org
mtllib Untitled.mtl
o Стрелка
v 0.000000 -1.000000 25.000000
v -0.707107 -0.707107 25.000000
v -0.707107 -0.707107 0.000000
v 0.000000 -1.000000 0.000000
v -1.000000 -0.000000 25.000000
v -1.000000 -0.000000 0.000000
v -0.707107 0.707107 25.000000
v -0.707107 0.707107 0.000000
v -0.000000 1.000000 25.000000
v -0.000000 1.000000 0.000000
v 0.707107 0.707107 25.000000
v 0.707107 0.707107 0.000000
v 1.000000 -0.000000 25.000000
v 1.000000 0.000000 0.000000
v 0.707107 -0.707107 25.000000
v 0.707107 -0.707107 0.000000
v 0.000000 -1.000000 25.000000
v 0.000000 -1.000000 0.000000
v -2.598076 -1.500000 25.000000
v -3.000000 -0.000000 25.000000
v -1.500000 -2.598076 25.000000
v -2.598076 1.500000 25.000000
v -0.000000 -3.000000 25.000000
v 1.500000 -2.598076 25.000000
v 0.000000 -1.000000 25.000000
v 2.598076 -1.500000 25.000000
v 3.000000 -0.000000 25.000000
v 2.598076 1.500000 25.000000
v 1.500000 2.598076 25.000000
v 0.000000 3.000000 25.000000
v -1.500000 2.598076 25.000000
v 0.707107 -0.707107 -0.000000
v 0.000000 -1.000000 -0.000000
v 1.000000 0.000000 0.000000
v -0.707107 -0.707107 -0.000000
v 0.707107 0.707107 0.000000
v -1.000000 -0.000000 -0.000000
v -0.000000 1.000000 0.000000
v -0.707107 0.707107 0.000000
v 0.000000 -0.000000 33.242432
vn -0.3827 -0.9239 -0.0000
vn -0.9239 -0.3827 -0.0000
vn -0.9239 0.3827 -0.0000
vn -0.3827 0.9239 -0.0000
vn 0.3827 0.9239 -0.0000
vn 0.9239 0.3827 -0.0000
vn 0.9239 -0.3827 -0.0000
vn 0.3827 -0.9239 -0.0000
vn -0.0000 -0.0000 -1.0000
vn -0.9113 -0.2442 0.3317
vn -0.6671 -0.6671 0.3317
vn -0.2442 -0.9113 0.3317
vn 0.2442 -0.9113 0.3317
vn 0.6671 -0.6671 0.3317
vn 0.9113 -0.2442 0.3317
vn 0.9113 0.2442 0.3317
vn 0.6671 0.6671 0.3317
vn 0.2442 0.9113 0.3317
vn -0.2442 0.9113 0.3317
vn -0.6671 0.6671 0.3317
vn -0.9113 0.2442 0.3317
s 0
f 1//1 2//1 3//1
f 1//1 3//1 4//1
f 2//2 5//2 6//2
f 2//2 6//2 3//2
f 5//3 7//3 8//3
f 5//3 8//3 6//3
f 7//4 9//4 10//4
f 7//4 10//4 8//4
f 9//5 11//5 12//5
f 9//5 12//5 10//5
f 11//6 13//6 14//6
f 11//6 14//6 12//6
f 13//7 15//7 16//7
f 13//7 16//7 14//7
f 15//8 17//8 18//8
f 15//8 18//8 16//8
f 19//9 20//9 21//9
f 20//9 22//9 21//9
f 21//9 22//9 23//9
f 22//9 5//9 23//9
f 23//9 2//9 24//9
f 2//9 25//9 24//9
f 24//9 25//9 26//9
f 25//9 15//9 26//9
f 26//9 15//9 27//9
f 15//9 13//9 27//9
f 27//9 13//9 28//9
f 13//9 11//9 28//9
f 28//9 11//9 29//9
f 11//9 9//9 29//9
f 29//9 9//9 30//9
f 9//9 7//9 30//9
f 30//9 7//9 31//9
f 7//9 5//9 31//9
f 31//9 5//9 22//9
f 2//9 23//9 5//9
f 32//9 33//9 34//9
f 33//9 35//9 34//9
f 34//9 35//9 36//9
f 35//9 37//9 36//9
f 36//9 37//9 38//9
f 37//9 39//9 38//9
f 20//10 19//10 40//10
f 19//11 21//11 40//11
f 21//12 23//12 40//12
f 23//13 24//13 40//13
f 24//14 26//14 40//14
f 26//15 27//15 40//15
f 27//16 28//16 40//16
f 28//17 29//17 40//17
f 29//18 30//18 40//18
f 30//19 31//19 40//19
f 31//20 22//20 40//20
f 22//21 20//21 40//21
